<svg width="48" height="32" viewBox="0 0 48 32" fill="none" xmlns="http://www.w3.org/2000/svg">
<path d="M16.4999 0.735931C18.8587 0.735931 21.161 1.46172 23.0936 2.81406C25.0259 4.16628 26.4955 6.07988 27.3036 8.2955C28.1117 10.5115 28.2195 12.9228 27.6112 15.2018C27.0029 17.4806 25.7081 19.5173 23.9032 21.0357L23.2958 21.5475L24.0184 21.8746C26.9917 23.2201 29.5508 25.3372 31.4286 28.0064L31.4354 28.0162L31.4432 28.026C31.589 28.2128 31.6953 28.4277 31.7557 28.6568C31.801 28.8287 31.8205 29.0064 31.8124 29.1832L31.7948 29.36C31.7687 29.5359 31.7158 29.7064 31.6385 29.8658L31.5536 30.0211C31.4292 30.2229 31.265 30.3973 31.0712 30.5338C30.9258 30.6361 30.7662 30.7161 30.5975 30.7701L30.4257 30.815C30.1938 30.864 29.954 30.8662 29.7216 30.8199C29.4892 30.7736 29.2685 30.6796 29.0731 30.5455C28.8778 30.4114 28.7115 30.2389 28.5848 30.0387L28.579 30.0289L28.5721 30.0191L28.3114 29.6598C27.0725 28.0035 25.4989 26.6265 23.6932 25.6178L23.3026 25.4068C21.2014 24.3147 18.8679 23.7447 16.4999 23.7447C14.1319 23.7447 11.7983 24.3147 9.69714 25.4068C7.72737 26.4307 6.01576 27.8851 4.68835 29.6598L4.42859 30.0191L4.42761 30.0201C4.30767 30.1924 4.15743 30.3416 3.98523 30.4596L3.80554 30.567C3.61919 30.664 3.41731 30.726 3.20984 30.7506L3.00183 30.7623H2.99792C2.68402 30.7632 2.37671 30.6782 2.10925 30.5172L1.99695 30.443L1.995 30.442L1.85828 30.3346C1.55451 30.0715 1.34853 29.7105 1.27917 29.3111C1.19996 28.8546 1.30587 28.3856 1.57214 28.0064L1.57117 28.0055C3.44896 25.3365 6.00823 23.22 8.98132 21.8746L9.70398 21.5475L9.09656 21.0357C7.29172 19.5173 5.99686 17.4806 5.38855 15.2018C4.81828 13.0652 4.87716 10.8126 5.55261 8.71347L5.69617 8.2955C6.4538 6.21823 7.793 4.4064 9.54968 3.07382L9.9071 2.81406C11.8397 1.46174 14.1411 0.735953 16.4999 0.735931ZM28.538 0.699799L28.6659 1.1832L28.6747 1.18124C29.5585 0.929642 30.4692 0.786976 31.3866 0.756439L31.7802 0.749603H31.7831C33.9956 0.743254 36.1596 1.37647 38.0165 2.56796L38.3837 2.81406C40.1986 4.07986 41.6067 5.84117 42.4423 7.88339L42.6014 8.2955C43.3599 10.3741 43.5007 12.6244 43.0116 14.776L42.9052 15.2047C42.2939 17.4844 40.9953 19.5208 39.1854 21.0357L38.5751 21.5465L39.2997 21.8746C42.087 23.136 44.5102 25.0755 46.3495 27.5123L46.7098 28.0064L46.7118 28.0094C46.8452 28.196 46.94 28.4077 46.9911 28.6314C47.0294 28.7992 47.0426 28.9712 47.0302 29.1422L47.0096 29.3131C46.9704 29.539 46.886 29.7546 46.7626 29.9478C46.6699 30.093 46.5563 30.2233 46.4257 30.3346L46.2899 30.4391L46.2841 30.443C45.992 30.6517 45.642 30.7624 45.2831 30.7613C45.0729 30.76 44.8654 30.7219 44.6698 30.648L44.4774 30.5631C44.2906 30.4658 44.1238 30.3356 43.9833 30.1803L43.8514 30.0172C42.4881 28.0832 40.6809 26.5042 38.5809 25.4137C36.6119 24.3912 34.4393 23.8263 32.2255 23.7574L31.7821 23.7496H31.7811C31.375 23.7496 30.9831 23.6093 30.6718 23.3541L30.5438 23.2379C30.2156 22.9097 30.0311 22.4637 30.0311 21.9996C30.0312 21.5937 30.1726 21.2025 30.4276 20.8912L30.5438 20.7623C30.872 20.4342 31.3171 20.2496 31.7811 20.2496C33.7702 20.2496 35.6828 19.509 37.1503 18.1803L37.4384 17.9068C38.9386 16.4066 39.7811 14.3713 39.7811 12.2496C39.781 10.2606 39.0405 8.34789 37.7118 6.88046L37.4384 6.59335C35.9381 5.09306 33.9029 4.2496 31.7811 4.2496C31.1413 4.24848 30.5041 4.32632 29.8837 4.48007L29.619 4.55038L29.6132 4.55234C29.4465 4.60202 29.2737 4.62585 29.1005 4.6246L28.9266 4.61484C28.7534 4.59627 28.5843 4.55226 28.4247 4.48398L28.2694 4.40781C28.1169 4.32386 27.978 4.21782 27.8573 4.09335L27.7421 3.96347C27.5978 3.78169 27.4915 3.57262 27.4286 3.34921C27.3814 3.18155 27.3591 3.00804 27.3632 2.83456L27.3759 2.66171C27.3971 2.48885 27.4438 2.32017 27.5145 2.16171L27.5936 2.00742C27.7087 1.80588 27.8627 1.62932 28.0468 1.48788C28.2307 1.34652 28.4407 1.24259 28.6649 1.1832L28.538 0.699799ZM18.0604 4.4039C16.5086 4.09528 14.9001 4.25351 13.4384 4.85898C12.068 5.42662 10.8844 6.36332 10.0175 7.5621L9.84851 7.80527C8.96953 9.12075 8.49996 10.6675 8.49988 12.2496C8.49988 14.3712 9.34252 16.4066 10.8427 17.9068C12.3429 19.4071 14.3782 20.2496 16.4999 20.2496C17.9832 20.2496 19.4355 19.8379 20.6952 19.0621L20.9442 18.9019C22.2598 18.0229 23.286 16.7729 23.8915 15.3111C24.459 13.9408 24.633 12.4416 24.3983 10.981L24.3466 10.6891C24.0571 9.23415 23.369 7.89041 22.3622 6.80624L22.1571 6.59335C21.1083 5.54456 19.7897 4.80957 18.3505 4.46738L18.0604 4.4039Z" fill="#4CAF4F" stroke="#4CAF4F"/>
</svg>
